<svg width="359" height="301" viewBox="0 0 359 301" fill="none" xmlns="http://www.w3.org/2000/svg">
<path fill-rule="evenodd" clip-rule="evenodd" d="M164.048 295.923C156.167 295.949 148.509 296.219 140.605 296.245C108.478 296.353 76.0547 296.198 43.8107 294.888C34.6974 294.519 32.4225 294.528 23.3485 293.955C17.9908 293.934 1.89736 293.489 2.70302 286.157C3.05868 272.504 6.4237 258.905 7.48364 245.287C9.51782 219.687 11.25 193.286 21.4644 169.342C23.8288 163.623 28.9065 159.884 33.9332 156.521C38.9739 152.894 40.2111 148.866 44.8637 144.768C45.8473 143.902 51.4335 143.549 54.4394 141.351C58.814 138.152 60.9835 132.914 62.6159 132.022C63.8168 131.367 63.7948 126.84 66.2022 125.239C69.4326 123.089 79.7267 121.49 83.472 121.191C87.0667 120.904 93.3191 121.507 96.6918 122.829C102.316 125.035 104.56 129.242 107.036 134.661C139.761 144.822 169.672 162.029 178.961 196.735C186.972 225.842 187.265 257.05 184.17 286.902C183.552 289.085 183.985 292.506 182.108 293.955C188.632 294.331 164.934 295.683 164.048 295.923Z" fill="white"/>
<path fill-rule="evenodd" clip-rule="evenodd" d="M15.2048 267.183C15.8241 266.872 16.4696 266.517 17.177 266.491C18.3914 266.449 18.3931 264.551 17.177 264.594C16.1161 264.631 15.1845 265.076 14.2512 265.544C13.162 266.089 14.1201 267.726 15.2048 267.183ZM17.177 213.747C16.3481 213.748 15.5127 213.853 14.8761 214.435C14.4977 214.782 14.5277 215.427 14.8761 215.777C15.2491 216.152 15.8354 216.123 16.2126 215.777C16.0894 215.89 16.2114 215.778 16.2559 215.753C16.2667 215.748 16.2725 215.744 16.2753 215.741C16.2847 215.739 16.2943 215.737 16.3095 215.733C16.4083 215.708 16.5059 215.684 16.6057 215.666C16.6073 215.67 16.8166 215.651 16.8658 215.65C16.9698 215.646 17.0733 215.645 17.177 215.645C17.6895 215.645 18.1217 215.211 18.1217 214.696C18.1217 214.184 17.6876 213.747 17.177 213.747ZM26.0616 235.042C26.3322 236.234 28.1536 235.726 27.8836 234.536C27.491 232.808 27.5626 231.035 27.8836 229.3C28.1046 228.105 26.2833 227.597 26.0616 228.796C25.6764 230.877 25.5902 232.966 26.0616 235.042ZM28.4481 166.815C29.8553 166.479 31.2472 166.439 32.6867 166.439C33.9044 166.438 33.9026 164.54 32.6867 164.54C31.0812 164.541 29.5139 164.61 27.9457 164.984C26.7614 165.267 27.266 167.097 28.4481 166.815ZM33.1634 213.055C33.9796 212.645 34.796 212.235 35.6122 211.825C36.7015 211.278 35.7434 209.641 34.6586 210.186L32.2098 211.416C31.1208 211.963 32.0789 213.6 33.1634 213.055ZM33.5034 250.44C34.5387 251.94 35.9944 252.871 37.7413 253.337C38.9199 253.65 39.4181 251.818 38.2437 251.505C36.9944 251.174 35.8845 250.567 35.1351 249.483C34.446 248.483 32.8087 249.433 33.5034 250.44ZM40.0325 183.601C40.3128 183.075 40.7345 182.853 41.2578 182.841C42.4736 182.813 42.4739 180.915 41.2578 180.943C40.0651 180.97 38.9712 181.571 38.4013 182.643C37.8274 183.721 39.4594 184.679 40.0325 183.601ZM52.0178 196.505C52.3566 196.876 53.0133 196.866 53.354 196.505C53.5626 196.284 53.7378 196.037 53.8757 195.766C53.9281 195.663 53.9775 195.558 54.0351 195.458C54.0609 195.414 54.0894 195.37 54.1187 195.327C54.1288 195.319 54.1491 195.297 54.1704 195.275C54.5336 194.889 54.5242 194.32 54.1704 193.932C53.8316 193.561 53.1747 193.571 52.834 193.932C52.6258 194.153 52.4502 194.401 52.3126 194.671C52.2601 194.774 52.2107 194.879 52.1529 194.979C52.1271 195.023 52.0986 195.067 52.0693 195.11C52.0595 195.118 52.0391 195.14 52.0178 195.162C51.6546 195.548 51.6638 196.117 52.0178 196.505ZM53.0255 224.538C54.2559 225.102 55.6057 225.102 56.8363 224.538C57.3023 224.324 57.4128 223.646 57.1749 223.237C56.8995 222.765 56.346 222.685 55.8825 222.899C55.3243 223.155 54.5364 223.155 53.9789 222.899C53.5132 222.685 52.9651 222.76 52.6865 223.237C52.4472 223.649 52.5612 224.324 53.0255 224.538ZM56.3821 244.38C56.5935 244.881 57.0501 245.149 57.5839 245.17C58.1126 245.189 58.5064 244.719 58.5287 244.22C58.5427 243.898 58.3697 243.623 58.121 243.453C58.1206 243.435 58.1201 243.418 58.1201 243.399C58.1199 242.868 57.6874 242.473 57.1754 242.452C56.6654 242.428 56.2304 242.903 56.2306 243.399C56.2308 243.736 56.2515 244.067 56.3821 244.38ZM61.2571 275.923C62.7652 275.947 64.2386 276.309 65.7467 276.333C66.9651 276.354 66.9614 274.456 65.7467 274.435C64.2388 274.411 62.7654 274.049 61.2571 274.026C60.0386 274.005 60.0424 275.905 61.2571 275.923ZM67.5277 154.269C68.4104 155.114 69.5008 155.53 70.576 156.058C71.6652 156.592 72.6221 154.955 71.5296 154.418C70.6188 153.971 69.6106 153.641 68.8637 152.927C67.9827 152.084 66.645 153.425 67.5277 154.269ZM69.897 176.15C70.5165 175.84 71.162 175.485 71.8689 175.46C73.0836 175.417 73.0852 173.519 71.8689 173.562C70.8082 173.599 69.8768 174.043 68.9433 174.511C67.8537 175.057 68.812 176.694 69.897 176.15ZM81.2561 263.973C81.5357 263.446 81.9574 263.223 82.4807 263.211C83.697 263.185 83.6975 261.285 82.4807 261.313C81.288 261.342 80.1941 261.944 79.6242 263.014C79.0508 264.093 80.6823 265.05 81.2561 263.973ZM85.1896 222.748C85.5657 222.402 85.5394 221.758 85.1896 221.405C84.7815 220.996 84.3734 220.586 83.9651 220.176C83.5919 219.801 83.0063 219.828 82.6291 220.176C82.2531 220.523 82.2793 221.166 82.6291 221.518C83.0375 221.927 83.4453 222.339 83.8537 222.748C84.2271 223.124 84.8125 223.096 85.1896 222.748ZM89.8277 286.995C91.1908 286.964 92.4688 286.571 93.7523 286.141C94.9021 285.758 94.4062 283.923 93.2498 284.311C92.1342 284.683 91.0136 285.069 89.8277 285.097C88.6116 285.125 88.6111 287.023 89.8277 286.995ZM95.9499 246.4C97.1815 246.365 98.203 245.734 99.067 244.89C99.9405 244.039 98.6029 242.696 97.7307 243.55C97.2362 244.032 96.6659 244.481 95.9499 244.502C94.7343 244.535 94.7333 246.433 95.9499 246.4ZM92.1482 194.193C92.1332 194.699 91.9206 195.24 91.6085 195.573C90.7734 196.461 92.1079 197.805 92.9445 196.915C93.6348 196.181 94.0087 195.198 94.0377 194.193C94.0726 192.969 92.1829 192.975 92.1482 194.193ZM106.561 152.847C106.957 152.069 107.475 151.157 108.263 150.727C109.333 150.143 108.379 148.505 107.309 149.088C106.238 149.672 105.471 150.823 104.93 151.888C104.377 152.976 106.008 153.935 106.561 152.847ZM109.011 172.59C109.449 172.577 109.884 172.502 110.307 172.386C110.487 172.337 110.666 172.28 110.847 172.231C110.924 172.21 111.254 172.169 111.051 172.179C111.563 172.152 111.996 171.767 111.996 171.23C111.996 170.737 111.561 170.254 111.051 170.281C110.35 170.319 109.712 170.671 109.011 170.691C107.795 170.725 107.794 172.624 109.011 172.59ZM115.133 202.934H117.174C118.391 202.934 118.389 201.035 117.174 201.035H115.133C113.915 201.035 113.917 202.934 115.133 202.934ZM117.513 286.865C118.132 287.176 118.861 287.472 119.363 287.947C120.247 288.786 121.584 287.446 120.699 286.604C120.06 285.997 119.244 285.617 118.467 285.226C118.009 284.996 117.446 285.099 117.174 285.567C116.929 285.988 117.057 286.637 117.513 286.865ZM122.073 262.88C122.152 262.856 122.236 262.842 122.316 262.83C122.637 262.788 122.973 262.802 123.296 262.802C124.514 262.802 124.512 260.902 123.296 260.904C122.338 260.904 121.34 260.918 120.587 261.591C120.204 261.934 120.242 262.588 120.587 262.934C120.963 263.312 121.542 263.275 121.923 262.934C121.883 262.971 122.021 262.894 122.073 262.88ZM123.296 230.619C123.021 230.05 123.017 229.68 123.016 229.048C123.015 227.825 121.126 227.827 121.127 229.048C121.127 229.965 121.263 230.746 121.664 231.578C121.887 232.041 122.542 232.161 122.956 231.919C123.421 231.646 123.518 231.08 123.296 230.619ZM128.759 186.088C129.855 186.462 130.833 186.992 131.798 187.632C132.817 188.307 133.763 186.663 132.752 185.993C131.651 185.263 130.511 184.684 129.261 184.257C128.105 183.862 127.614 185.696 128.759 186.088ZM135.132 154.137C135.946 154.16 136.787 154.473 137.512 154.828C138.603 155.36 139.56 153.722 138.466 153.188C137.429 152.682 136.296 152.271 135.132 152.239C133.914 152.204 133.919 154.103 135.132 154.137ZM137.989 239.428C138.31 239.444 138.583 239.27 138.753 239.018C138.771 239.018 138.788 239.018 138.806 239.018C139.335 239.018 139.727 238.583 139.75 238.068C139.773 237.558 139.3 237.121 138.806 237.121C138.472 237.121 138.141 237.142 137.831 237.271C137.331 237.485 137.065 237.944 137.045 238.48C137.024 239.011 137.494 239.406 137.989 239.428ZM142.636 173.786C143.797 174.167 144.289 172.333 143.138 171.955C141.788 171.512 140.407 171.168 139.057 170.725C137.896 170.344 137.403 172.178 138.554 172.556C139.905 172.999 141.285 173.342 142.636 173.786ZM146.874 209.618C147.234 210.783 149.057 210.283 148.696 209.113C148.347 207.984 148.322 206.848 148.322 205.675C148.321 204.451 146.431 204.453 146.432 205.675C146.433 207.01 146.477 208.333 146.874 209.618ZM159.507 252.535C159.576 253.008 159.949 253.349 160.438 253.37C160.935 253.393 161.4 252.918 161.382 252.422C161.348 251.465 160.572 250.687 159.621 250.651C159.092 250.633 158.699 251.103 158.676 251.601C158.655 252.086 159.058 252.465 159.507 252.535ZM165.901 197.979C166.899 198.314 167.966 198.633 168.749 199.375C169.633 200.214 170.971 198.873 170.085 198.033C169.053 197.054 167.725 196.592 166.403 196.148C165.245 195.76 164.753 197.594 165.901 197.979ZM170.234 234.859C170.508 235.329 171.064 235.413 171.526 235.2C172.146 234.908 172.83 234.92 173.499 234.917C174.716 234.917 174.714 233.02 173.499 233.02C172.468 233.02 171.517 233.118 170.572 233.558C170.108 233.777 169.995 234.447 170.234 234.859ZM172.682 279.613C173.211 279.634 173.605 279.164 173.627 278.665C173.649 278.181 173.246 277.802 172.796 277.732C172.728 277.259 172.354 276.918 171.866 276.895C171.368 276.874 170.903 277.349 170.921 277.845C170.956 278.799 171.731 279.58 172.682 279.613ZM0.534496 286.792C0.855498 285.631 1.59022 284.695 2.14513 283.651C2.33126 283.298 2.39612 283.079 2.49704 282.823C2.63401 283.098 2.89998 283.305 3.29966 283.305C4.06692 283.305 4.96414 283.256 5.68013 283.585C6.14559 283.799 6.69418 283.724 6.97257 283.244C7.21186 282.832 7.0976 282.16 6.63377 281.946C5.57852 281.461 4.44435 281.407 3.29966 281.405C3.01705 281.405 2.80305 281.511 2.6518 281.668C2.21443 275.651 2.2252 269.628 2.63916 263.606C3.0805 257.17 4.09642 250.863 5.15941 244.509C5.67404 241.429 6.3425 238.318 6.21256 235.181C6.08261 232.065 4.75295 229.161 5.69535 226.036C6.07325 224.782 6.7204 223.635 7.14092 222.395C7.59186 221.062 7.55183 219.745 7.34625 218.364C6.92364 215.552 6.22216 212.773 7.34415 210.027C7.84005 208.81 8.64338 207.723 9.03041 206.466C9.51226 204.902 9.446 203.172 9.52654 201.551C9.6895 198.281 9.73187 194.99 10.0014 191.727C10.1217 190.265 10.3837 188.879 10.9815 187.538C11.5556 186.248 12.4081 185.073 12.7883 183.704C13.1662 182.356 13.1992 180.934 13.4024 179.556C13.615 178.098 13.948 176.663 14.3968 175.263C16.1306 169.843 19.3074 164.973 23.0606 160.752C27.0501 156.264 31.8188 152.885 36.8806 149.736C39.5422 148.08 42.2037 146.424 44.8635 144.768C44.9204 145.079 45.1175 145.365 45.4961 145.492C46.495 145.827 47.5614 146.145 48.3444 146.888C49.2287 147.726 50.5668 146.386 49.6806 145.546C48.7562 144.669 47.5942 144.207 46.4118 143.801C47.6237 143.034 48.8487 142.239 50.2163 141.796C51.4142 141.407 53.1805 141.746 54.1517 140.863C54.9143 140.168 55.1555 138.88 55.4481 137.935C55.8143 136.763 56.1306 135.527 56.5961 134.388C56.9127 133.609 57.3732 132.862 57.9541 132.259C58.2093 131.272 58.6771 130.37 59.5039 129.822C61.6673 128.384 64.3245 129.812 65.2763 131.863C66.063 131.86 66.8918 132.033 67.6572 132.081C69.2304 132.181 70.8057 132.226 72.3812 132.221C75.4636 132.211 78.5483 132.01 81.6048 131.599C87.0702 130.864 92.373 129.38 97.7464 128.225C97.7771 128.154 97.8127 128.082 97.8551 128.011C99.0126 126.061 101.897 126.39 103.713 127.129C104.492 127.444 105.286 127.843 105.732 128.583C106.205 128.904 106.613 129.293 106.885 129.703C107.447 130.55 107.882 132.259 109.023 132.401C109.774 132.494 110.537 132.349 111.299 132.458C112.254 132.591 113.109 132.928 113.99 133.313C120.698 136.238 127.633 139.492 134.912 140.626C136.62 140.892 138.358 141.167 139.842 142.128C141.046 142.909 141.977 143.982 142.971 145C143.94 145.992 144.738 146.431 146.12 146.609C147.797 146.825 149.25 147.29 150.475 148.514C151.493 149.532 152.157 150.833 152.956 152.014C153.768 153.22 154.961 153.899 156.199 154.599C159.125 156.255 161.851 158.255 164.225 160.655C169.225 165.714 172.253 172.216 175.305 178.552C178.604 185.405 181.689 192.341 183.828 199.66C185.926 206.845 187.174 214.237 187.75 221.697C188.356 229.528 188.443 237.386 188.949 245.219C189.199 249.132 189.391 253.05 189.585 256.965C189.775 260.834 190.051 264.709 190.007 268.582C189.92 276.069 188.431 283.58 185.825 290.59C185.174 292.333 184.455 294.054 183.687 295.747C183.013 297.236 180.711 297.069 179.988 295.747C179.823 295.444 179.693 295.131 179.584 294.813C177.695 294.83 175.787 294.682 173.909 294.858C170.592 295.168 167.269 295.342 163.944 295.549C157.363 295.959 150.771 296.231 144.188 296.61C143.549 296.645 142.911 296.683 142.272 296.72C146.963 282.134 146.355 266.362 147.097 251.192C147.157 249.967 145.267 249.974 145.207 251.192C144.462 266.428 145.097 282.24 140.24 296.85C138.355 296.979 136.474 297.134 134.598 297.365C133.082 297.546 131.558 297.762 130.028 297.687C128.292 297.605 126.596 297.205 124.902 296.859C121.825 296.229 118.86 296.514 115.771 296.902C112.466 297.315 109.15 297.546 105.824 297.692C92.5076 298.277 79.1009 298.811 65.7888 297.917C62.5671 297.701 59.3524 297.398 56.1519 296.984C52.8546 296.561 49.5928 295.846 46.298 295.439C43.0503 295.042 40.0646 296.135 36.8546 296.337C33.5811 296.542 30.2198 295.857 26.9768 295.462C25.9187 295.333 24.8597 295.208 23.8005 295.084C25.1641 285.694 25.9396 276.232 26.6928 266.774C26.7899 265.553 24.8995 265.565 24.8033 266.774C24.0562 276.159 23.298 285.548 21.9363 294.865C16.3207 294.209 10.6996 293.546 5.14255 292.523C3.56002 292.234 1.98708 291.761 1.03976 290.343C0.338524 289.292 0.196635 288.003 0.534496 286.792Z" fill="black"/>
<path fill-rule="evenodd" clip-rule="evenodd" d="M42.9699 87.634C43.4784 83.1454 42.8205 73.7634 42.7763 73.1934C42.4976 69.5902 44.178 55.3608 47.3551 56.6717C52.6843 52.4333 59.7821 51.4974 66.4192 51.0504C80.2057 50.1215 94.8718 52.2537 105.517 61.5749C110.782 66.4156 115.907 73.4561 115.495 80.7868C120.279 87.7356 127.022 97.2673 121.062 105.391C119.036 107.986 115.817 108.953 113.271 110.918C108.153 115.066 104.941 121.019 99.774 125.142C86.084 137.502 62.8379 140.084 49.3874 126.026C38.9863 115.845 40.6681 100.613 42.4976 87.634C43.7276 78.9079 41.9781 96.3907 42.9699 87.634Z" fill="white"/>
<path fill-rule="evenodd" clip-rule="evenodd" d="M84.8353 32.0155C81.1481 31.268 77.3621 30.8028 73.597 30.9428L73.3067 30.9543C70.4736 31.0679 66.8859 31.3195 64.4146 32.9747C64.2722 32.8313 64.0437 32.7577 63.8363 32.8571C60.8995 34.2655 57.6691 35.2839 54.5768 36.2956C51.4986 37.3025 48.3052 37.9673 45.079 38.2351C43.8653 38.336 42.8264 39.6529 43.5951 40.8338C43.778 41.1153 43.9559 41.3996 44.1334 41.6846C43.8367 41.6536 43.5401 41.6213 43.2434 41.5912C42.2671 41.4925 41.2919 42.5394 41.3497 43.4943C41.386 44.0949 41.4504 44.6882 41.5459 45.2747C41.1741 45.2669 40.8044 45.3229 40.4473 45.4746C38.6389 46.2416 38.7648 48.4058 38.9002 50.0521C39.0877 52.3368 39.9383 54.7568 41.5174 56.4668C40.3382 57.6972 39.5035 59.1666 39.0058 60.9117C38.6445 62.186 38.4436 63.5433 38.5429 64.8698L38.5745 65.267C38.6972 66.7066 38.9409 68.3003 39.9718 69.3359C40.501 69.8699 41.1528 70.0644 41.7742 70.0028C41.3984 73.3201 41.1575 76.6567 40.9308 79.9813L40.8243 81.5702C40.3186 89.2541 39.9386 96.9879 40.0378 104.684C40.1303 111.877 41.5447 118.858 45.9358 124.698C49.9348 130.016 55.6766 133.936 62.172 135.427C65.6726 136.231 69.2462 136.288 72.7892 135.776C74.5066 135.526 76.2352 135.144 77.8653 134.542C79.6696 133.873 80.9664 132.888 82.1804 131.412C82.7546 130.712 82.4783 129.221 81.3347 129.361C79.6056 129.572 78.0269 129.826 76.3689 130.34L76.1315 130.415C74.4804 130.946 72.7702 131.343 71.0439 131.511C67.5078 131.855 63.9177 131.509 60.5305 130.431C55.0151 128.676 50.2652 124.762 47.2207 119.846C43.6068 114.018 43.1982 107.401 43.2504 100.7C43.3064 93.3465 43.5445 85.9885 43.9329 78.6426L43.9992 77.4184C44.2048 73.6383 44.4031 69.8556 44.5775 66.0729C44.6321 64.8865 44.7147 63.6905 44.8636 62.5063C46.2263 61.7042 47.4474 60.5985 48.2434 59.2339C49.8426 59.8985 51.5242 60.3777 53.0716 60.7598C56.6557 61.6454 60.3766 61.8603 64.0247 61.3058C65.0088 61.7143 66.0123 62.0734 67.0313 62.3821C67.3069 62.5049 67.5822 62.6255 67.8573 62.7436C70.3141 63.7997 72.8061 64.6942 75.3991 65.3493L76.0362 65.5088C77.401 65.8469 78.8833 66.1796 80.3357 66.2843C80.5743 66.3767 80.8318 66.455 81.113 66.5239C82.4354 66.8465 83.8082 66.9486 85.1636 66.8348C86.4841 66.7233 87.4385 65.3825 86.711 64.1272C86.1795 63.2111 85.6431 62.2975 85.1022 61.3863C86.9847 62.174 88.9285 62.8292 90.889 63.3844C92.8684 63.9445 94.8761 64.4167 96.8864 64.8508C97.9611 65.081 99.0402 65.2851 100.113 65.5153C100.88 65.679 102.059 65.7646 102.685 66.2723C103.377 66.8301 103.573 68.1305 103.835 68.9326C104.18 69.9743 104.504 71.0208 104.799 72.0792C105.387 74.1911 105.869 76.3338 106.242 78.4982C106.615 80.6647 106.866 82.8525 107.005 85.0477C107.144 87.2403 107.083 89.4472 107.307 91.6304C107.428 92.7885 108.665 93.3841 109.579 92.5747C109.687 92.48 109.795 92.384 109.902 92.2869L110.061 92.1406C110.843 91.4286 111.601 90.674 112.227 89.8246C112.341 89.668 112.449 89.5041 112.551 89.3381C112.567 89.3381 112.582 89.3334 112.598 89.3214L112.771 89.1902C114.682 87.7618 117.873 85.8994 119.736 88.2726C120.33 89.0286 120.634 89.9913 120.886 90.92L121.328 92.582C121.615 93.6673 121.884 94.7584 122.041 95.8685C122.398 98.3555 122.219 101.222 120.516 103.215C119.835 104.013 118.897 104.582 117.851 104.732C117.268 104.812 116.691 104.713 116.113 104.639C115.525 104.566 114.958 104.684 114.37 104.627C113.434 104.535 113.025 105.66 113.375 106.367C113.564 106.747 113.786 107.074 114.039 107.352C113.836 107.527 113.642 107.717 113.455 107.916C112.903 108.094 112.407 108.476 112.036 108.982C111.736 109.39 111.58 109.834 111.554 110.301C111.521 110.418 111.493 110.536 111.467 110.657L110.96 111.483C110.848 111.665 110.737 111.844 110.626 112.019C109.336 114.06 107.905 115.788 106.126 117.415C104.414 118.982 102.555 120.384 100.946 122.064L100.757 122.264C99.257 123.852 97.6761 125.774 98.2631 128.082C98.4144 128.676 99.239 129.103 99.7773 128.702C101.508 127.411 102.38 125.365 103.849 123.799C105.361 122.185 107.036 120.735 108.552 119.126C109.986 117.608 111.117 115.887 111.97 113.994C112.31 114.371 112.806 114.639 113.493 114.744C114.674 114.921 115.775 114.226 116.29 113.199C116.621 113.346 116.958 113.479 117.299 113.583C119.089 114.134 120.215 112.133 119.54 110.655C119.179 109.862 118.728 109.174 118.168 108.595C119.918 108.353 121.699 107.444 122.849 106.31C125.735 103.46 126.132 99.1765 125.483 95.3679C125.138 93.3484 124.543 91.3054 123.77 89.4093C123.636 89.0794 123.491 88.7471 123.334 88.4196C123.421 88.4172 123.511 88.3794 123.567 88.3058C124.089 87.5892 124.724 87.003 125.112 86.2009C125.469 85.4653 125.865 84.7201 126.147 83.9538C126.725 82.385 127.009 80.6148 127.198 78.956C127.587 75.5604 127.436 72.186 126.919 68.8115C126.038 63.0641 123.91 57.5638 120.776 52.7375C120.946 52.6475 121.11 52.5388 121.262 52.4102L121.338 52.3441L121.46 52.2331C122.354 51.42 122.277 49.8957 121.46 49.072L121.202 48.8121C120.875 48.486 120.593 48.2273 120.065 47.8722C119.987 47.8198 119.908 47.7704 119.827 47.7243C120.103 47.2114 120.199 46.6113 120.007 45.9496C119.336 43.6439 116.034 43.7255 113.941 44.731C111.626 42.6548 109.058 40.8526 106.275 39.3933C99.6473 35.9191 92.1531 33.4963 84.8353 32.0155ZM119.096 92.741C117.858 92.3351 116.214 93.1871 115.102 93.6997C113.692 94.3499 112.492 95.311 111.33 96.3266C110.751 96.8343 110.647 97.6649 110.791 98.3746C110.805 98.4456 110.819 98.5192 110.836 98.5928C110.99 99.3498 111.831 99.9454 112.575 99.924C114.131 99.8814 114.873 98.5312 115.754 97.3874C115.858 97.5725 115.988 97.7432 116.148 97.8714L116.257 97.9567C116.623 98.2365 117.026 98.4602 117.509 98.4385C117.851 98.4219 118.179 98.3341 118.482 98.1752C119.238 97.774 119.571 96.7918 119.365 95.992C119.238 95.489 118.945 95.0949 118.562 94.8221L118.705 94.7241C119.01 94.5108 119.288 94.2857 119.505 93.9537L119.554 93.8751H119.535C119.772 93.4672 119.618 92.9117 119.096 92.741Z" fill="black"/>
<path fill-rule="evenodd" clip-rule="evenodd" d="M60.7991 116.622C62.5392 117.128 64.4069 117.173 66.1805 116.65C67.789 116.176 69.4409 115.132 70.6249 113.751C71.6767 112.524 72.3578 111.033 72.3311 109.441C72.328 109.26 72.2634 109.108 72.1639 108.99C72.0567 108.863 71.907 108.776 71.7466 108.738C71.5818 108.7 71.4076 108.713 71.2592 108.781C71.1248 108.842 71.0098 108.947 70.9377 109.099C70.7558 109.339 70.5746 109.576 70.3926 109.806C68.9295 111.62 67.5127 112.977 65.3128 113.463C64.1192 113.727 62.9272 113.61 61.8333 113.208C60.6626 112.776 59.6041 112.018 58.7747 111.048C58.3999 110.61 57.9574 110.431 57.5247 110.428C57.0342 110.424 56.5495 110.653 56.1845 111.019C55.8256 111.379 55.5851 111.867 55.5633 112.379C55.5444 112.827 55.69 113.296 56.0775 113.714C57.3542 115.092 59.0089 116.101 60.7991 116.622ZM60.8529 93.8901C59.0693 94.9793 56.3517 97.5192 58.2704 100.22C60.5289 102.6 63.7808 99.8705 65.3833 98.636C66.8691 97.6791 68.5385 100.14 67.1599 101.257C55.5806 109.87 50.8815 94.1749 59.9508 92.6095C60.9494 92.4369 61.3203 93.5531 60.8529 93.8901ZM77.5378 89.0974C78.111 88.7289 78.7855 88.6027 79.5329 88.9441C80.1168 89.211 81.1412 90.1006 81.8541 91.2698C82.3418 92.0698 82.6877 93.0083 82.6155 93.986C82.5989 94.213 82.6823 94.3804 82.8141 94.5041C82.9181 94.6019 83.0684 94.6736 83.2449 94.6962C83.3947 94.7153 83.5624 94.6981 83.6987 94.6553C83.9581 94.5739 84.0953 94.4049 84.147 94.2668C84.6462 92.9351 84.4313 91.449 83.8717 90.1081C83.1168 88.2986 81.7457 86.783 80.8476 86.2944C79.3105 85.458 77.4971 85.4194 75.9578 86.2716C74.6476 86.9968 73.8281 88.1679 73.0133 89.3615C72.8401 89.6152 72.6682 89.8671 72.4905 90.1145C72.1344 90.6104 72.099 91.1021 72.2369 91.5237C72.3896 91.991 72.7792 92.3851 73.2664 92.5916C73.7165 92.7823 74.2391 92.8091 74.7015 92.6132C75.092 92.4477 75.4505 92.125 75.6774 91.5776C76.0595 90.6556 76.6958 89.6383 77.5378 89.0974ZM48.4226 91.1487C48.8152 91.3542 49.1224 91.4161 49.5579 91.2851C49.7989 91.2124 50.0367 91.073 50.2231 90.8858C50.4079 90.7002 50.5411 90.4696 50.5928 90.2135C50.7202 89.5818 51.0644 88.9904 51.5547 88.6048C51.9738 88.2753 52.5027 88.1006 53.0894 88.1991C53.7225 88.3054 54.3257 88.7134 54.741 89.1943C54.8801 89.3552 54.9887 89.5379 55.0983 89.7196C55.303 90.059 55.502 90.3746 55.7841 90.6241C55.8911 90.7188 56.0524 90.7844 56.2086 90.7844C56.2721 90.7844 56.3364 90.7741 56.398 90.7548C57.0281 90.1194 57.1491 89.6373 57.129 89.1593C57.1077 88.6579 56.9108 88.1502 56.5928 87.6766C55.8471 86.5658 54.431 85.6548 53.4755 85.4483C52.1669 85.1659 50.8672 85.505 49.8251 86.2394C48.753 86.9949 47.9585 88.1681 47.7108 89.4901C47.6514 89.8085 47.6766 90.1521 47.7972 90.45C47.9152 90.7414 48.1208 90.9907 48.4226 91.1487ZM74.6516 77.2518C75.4369 78.0205 76.3664 78.1397 77.307 78.2455C77.8293 78.305 78.2465 78.3528 78.657 78.4459C79.7851 78.7017 80.9002 79.0872 81.9176 79.6421C82.9813 80.2222 84.1402 80.9218 84.974 81.8182C85.1723 82.0315 85.3592 82.2552 85.5462 82.4795C85.7169 82.6841 85.8813 82.8809 86.0545 83.0709C86.2536 83.2889 86.4425 83.5175 86.6305 83.7453C86.7467 83.9377 86.7696 83.9849 86.793 84.0343C86.8284 84.1084 86.8693 84.1912 86.9162 84.2801C86.9801 84.4016 87.0553 84.5347 87.1339 84.6556C87.2646 84.8764 87.3348 84.9371 87.3954 84.9644C87.4961 85.0093 87.5914 85.0316 87.6841 85.0194C87.771 85.0083 87.8527 84.9662 87.9335 84.8978C88.3367 84.5554 88.4556 83.9939 88.4435 83.3975C88.425 82.4929 88.0927 81.4911 87.7865 80.8753C87.0745 79.4444 86.0871 77.957 84.8998 76.8889C83.5451 75.6701 82.0627 74.7472 80.3601 74.1113C79.3023 73.716 78.0773 73.3532 76.9246 73.399C76.0948 73.4319 75.3027 73.6798 74.6488 74.2985C74.247 74.6783 74.0543 75.2186 74.0543 75.7586C74.0543 76.3093 74.2545 76.8631 74.6516 77.2518ZM46.8253 84.2914C46.8754 84.3737 46.9445 84.4303 47.0213 84.4644C47.1021 84.4999 47.192 84.5103 47.2784 84.4957C47.3645 84.4811 47.4462 84.4419 47.5111 84.3821C47.5731 84.3247 47.6204 84.2486 47.6418 84.1554C48.1632 81.8547 49.1756 80.1428 51.3364 79.0389C52.3994 78.496 53.6219 78.151 54.779 77.8759C55.1152 77.7959 55.4706 77.744 55.8284 77.6915C56.9499 77.5271 58.0794 77.3386 58.8103 76.428C59.251 75.8794 59.4357 75.1777 59.3313 74.5362C59.233 73.9321 58.8815 73.3781 58.2428 73.0463C56.6525 72.2202 54.6764 73.0308 53.0705 73.7212C52.9515 73.7724 52.8345 73.8228 52.7202 73.8712C51.1496 74.5372 49.7174 75.4162 48.5401 76.6733C47.6059 77.6708 46.7403 79.1452 46.3917 80.662C46.1018 81.9238 46.17 83.212 46.8253 84.2914Z" fill="black"/>
<path fill-rule="evenodd" clip-rule="evenodd" d="M55.8504 120.455C58.0501 118.486 60.5158 114.527 63.676 117.66C64.4575 118.544 64.7741 120.528 65.9691 120.917C67.5563 121.435 69.1295 119.747 69.6704 118.452C71.8837 111.253 62.7347 109.278 57.5229 110.441C54.9766 111.492 53.1012 115.72 52.9878 117.927C52.9146 119.41 54.1639 121.591 55.8504 120.455ZM39.2552 109.359C39.2768 109.263 39.3067 109.177 39.3428 109.098C40.3156 108.728 41.0855 109.105 41.5612 109.809C41.5456 109.984 41.4936 110.161 41.4608 110.335C41.8279 111.112 42.159 112.073 42.6565 112.744C42.7546 112.752 42.8565 112.742 42.9544 112.713C51.2007 113.578 47.1747 104.91 55.5388 102.757C62.0042 101.685 73.6898 102.913 76.7399 109.674C79.1452 120.473 91.3763 112.948 95.3922 107.332C99.6772 102.22 102.448 95.9746 105.119 89.9139C105.683 88.6314 107.445 89.5485 107.254 90.7791C109.723 95.7556 109.641 101.733 110.252 107.185C111.292 118.062 112.306 133.315 102.247 139.956C89.1412 154.839 56.414 160.091 41.2978 146.416C36.0651 135.114 36.7102 121.325 39.2552 109.359Z" fill="black"/>
<path fill-rule="evenodd" clip-rule="evenodd" d="M47.8643 76.2427C42.3202 76.2427 39.1565 77.4403 37.9971 77.5337L37.9622 77.5363C37.4801 77.5673 37.0474 77.6077 36.5937 77.7841C34.9247 78.4298 34.6529 80.1883 35.6267 81.2966C35.695 83.5898 35.3949 86.2692 35.91 88.5699C36.5454 98.2686 41.0853 99.9053 43.666 100.503C44.9615 100.803 46.4972 100.922 47.8732 100.605C50.2211 100.517 52.5421 99.779 54.5281 98.4932C57.2937 96.7011 59.3478 93.9467 60.0144 90.6776C60.3305 89.1195 60.478 87.4976 60.3061 85.9136L60.2806 85.6954C61.1797 85.2634 62.2214 85.1818 63.2951 85.1435C63.8081 85.1252 64.3139 85.1087 64.8051 85.1308C65.2851 85.1846 65.7594 85.2564 66.2354 85.354C66.755 85.5115 67.2457 85.7714 67.6988 86.1831L67.7299 86.7842C67.8152 88.2854 68.0114 89.7911 68.3139 91.2638C68.7606 93.4369 69.4792 95.5124 71.0086 97.0538C71.5262 97.8305 72.1668 98.524 72.9446 99.1246C75.7697 101.31 79.6077 102.112 83.1303 101.81C90.2818 101.197 94.4153 95.4933 95.368 93.0555L95.4249 92.9078C96.113 91.0955 96.6616 88.7439 98.836 88.3545L99.2984 88.271C100.291 88.0839 101.206 87.8233 101.788 86.8507C102.043 86.426 102.174 85.951 102.207 85.4668C102.546 85.4932 102.885 85.5181 103.223 85.5425C105.918 86.1149 122.08 86.6005 123.37 86.6005C123.37 86.6005 125.85 87.6491 126.897 86.8366C127.622 86.2715 127.861 85.5186 127.462 84.6657C126.859 83.3822 124.078 82.6102 122.843 82.3656C122.843 82.3656 102.917 82.5319 101.482 82.2586C100.595 81.3394 99.0076 81.4652 97.6812 81.3199C96.5831 80.5333 95.0472 80.0066 93.8339 79.6538C93.5866 79.5598 93.3417 79.4688 93.1036 79.3829C90.8793 78.5872 88.5672 78.1655 86.22 77.9391C83.7995 77.7082 81.3717 77.8126 78.9652 78.1439C77.9512 78.2822 76.9465 78.4609 75.9491 78.6946C74.1629 78.9312 72.3872 79.3208 70.6002 79.7829L70.2427 79.8765C68.3612 80.372 66.4274 80.8007 64.4796 80.4646C62.8941 80.193 61.3691 79.5797 59.9069 78.9168L59.7166 78.8301C56.5019 77.3554 51.4813 76.2427 47.8643 76.2427ZM76.1425 81.6348C77.3286 81.3726 77.8351 83.2101 76.6452 83.4727C75.8025 83.659 75.0884 84.0858 74.6058 84.8091L74.555 84.8876C73.9077 85.9228 72.2706 84.9674 72.9224 83.9254C73.6559 82.7532 74.7957 81.932 76.1425 81.6348ZM41.401 80.4954C41.8191 80.1996 42.4518 80.4192 42.6946 80.8374C42.9617 81.2978 42.7868 81.8107 42.3951 82.1119L42.3553 82.1413C41.9959 82.3957 41.6461 82.8517 41.6021 83.3187L41.5983 83.3772C41.5513 84.5998 39.6599 84.6059 39.7072 83.3772C39.7533 82.1751 40.4461 81.1708 41.401 80.4954Z" fill="black"/>
<path fill-rule="evenodd" clip-rule="evenodd" d="M335.414 178.586C333.356 170.565 331.461 167.164 327.804 164.376C324.383 161.769 319.389 159.579 312.105 157.979C304.515 156.646 304.299 152.684 302.398 146.316C301.843 144.402 299.092 143.893 297.905 145.272C297.736 145.091 297.563 144.925 297.383 144.774C297.544 143.862 296.219 141.245 296.264 140.371C296.725 131.256 293.758 126.679 286.348 124.977C284.737 124.607 273.793 124.389 272.222 124.825C265.355 126.732 258.596 132.788 259.63 140.083C257.474 142.913 255.364 144.64 252.037 145.552C244.636 146.496 237.235 147.335 229.832 148.054C215.339 150.337 201.752 158.042 192.466 169.28C191.609 170.317 191.361 171.725 192.117 172.831C191.525 175.379 188.19 181.559 190.815 183.306C186.5 193.668 176.577 213.696 176.558 219.418C176.48 243.456 179.065 274.743 202.679 288.046C203.625 288.979 203.761 290.014 204.17 291.401C205.208 295.777 208.977 298.905 213.105 298.651C233.435 299.105 253.126 296.612 273.456 296.492C282.421 296.438 293.203 297.783 300.991 298.679C308.781 299.575 316.641 298.783 324.117 296.492C324.746 297.489 326.02 298.07 327.313 297.783C335.06 296.238 341.326 291.441 346.783 286.2C348.453 283.152 354.964 274.47 352.375 271.446C354.723 261.483 354.601 250.776 350.431 241.285C351.021 239.547 349.944 237.636 350.431 235.839C350.782 234.539 351.684 234.002 352.138 232.714C352.775 230.903 352.082 228.474 351.363 226.626C351.068 225.704 351.904 224.712 352.138 223.773C353.241 219.339 350.715 219.73 348.895 216.766C348.921 216.757 349.394 214.641 349.392 214.651C349.67 213.141 348.973 211.205 348.364 209.945C347.952 209.092 347.071 208.559 346.193 208.657C347.076 205.647 348.193 203.143 349.392 200.244C351.515 195.134 354.201 190.24 357.249 185.614C358.497 183.72 356.821 181.526 354.803 181.397C348.263 180.979 341.799 180.034 335.414 178.586Z" fill="white"/>
<path fill-rule="evenodd" clip-rule="evenodd" d="M316.334 217.232C313.721 216.202 310.904 215.633 308.076 215.412C309.598 215.144 311.127 214.885 312.667 214.752C313.742 214.66 314.737 214.669 315.545 215.488C316.083 216.034 316.336 216.736 316.692 217.381C316.575 217.329 316.456 217.279 316.334 217.232ZM344.4 207.602C340.118 207.821 335.83 208.844 331.958 210.697C330.373 211.456 328.935 212.552 328.516 214.356C328.303 215.277 328.354 216.228 328.467 217.159C328.553 217.863 328.575 218.763 329.183 219.239C329.289 219.32 329.399 219.382 329.513 219.427C328.085 220.075 326.725 220.853 325.514 221.654C324.409 222.388 323.274 223.519 322.763 224.791C322.721 224.648 322.679 224.511 322.637 224.384C321.768 221.802 320.429 219.688 318.319 218.267C318.692 218.098 318.949 217.699 318.83 217.149C318.329 214.849 316.214 212.851 313.826 212.994C311.211 213.148 308.404 214.104 306.039 215.312C305.177 215.293 304.316 215.305 303.466 215.343C303.32 215.348 303.328 215.547 303.466 215.564C304.156 215.652 304.847 215.749 305.535 215.863C307.174 216.126 308.809 216.461 310.408 216.876C312.325 217.374 314.311 217.875 316.102 218.746C319.579 220.438 321.731 224.862 321.291 228.711C321.218 229.341 320.974 231.249 320.101 231.053C319.366 230.886 319.073 229.341 318.816 228.77C318.125 227.251 316.882 226.259 315.393 225.588C313.641 224.796 311.768 224.262 309.954 223.641C308.928 223.289 307.9 222.934 306.87 222.583C305.816 222.221 304.814 221.72 303.693 221.974C303.016 222.127 302.937 222.938 303.318 223.404C303.896 224.114 304.756 224.323 305.589 224.615C306.69 224.998 307.788 225.384 308.888 225.767C310.586 226.362 312.365 226.861 314.021 227.587L313.969 227.707C313.833 227.67 313.674 227.804 313.702 227.971C313.948 229.506 314.295 231.279 313.911 232.817C313.609 234.037 312.543 235.387 311.159 235.03C311.377 234.83 311.457 234.487 311.312 234.169C310.761 232.991 303.583 228.344 302.941 230.07C302.92 230.132 302.986 230.176 303.04 230.167C303.585 230.054 304.498 230.988 304.936 231.284C305.566 231.712 306.205 232.13 306.83 232.568C307.512 233.048 308.179 233.551 308.827 234.07C309.338 234.48 309.724 234.903 310.31 235.11C310.003 235.258 309.759 235.531 309.654 235.879C309.389 236.789 308.881 237.56 307.994 237.96C307.067 238.378 306.02 238.115 305.041 238.216C303.709 238.353 302.548 238.988 301.576 239.898C299.539 241.809 298.516 245.179 295.664 246.082C293.962 246.623 292.073 246.282 290.347 246.037C288.422 245.765 286.547 245.548 284.608 245.833C282.752 246.108 280.998 246.752 279.3 247.54C277.711 248.278 275.955 249.113 274.545 250.214C274.255 249.315 273.96 248.424 273.737 247.507C273.215 245.337 272.932 243.124 272.862 240.892C272.798 238.769 272.918 236.636 273.098 234.522C273.189 233.466 273.33 232.415 273.419 231.359C273.442 231.093 273.491 230.809 273.527 230.524C276.043 229.031 278.689 227.886 281.356 226.71C281.363 226.708 281.37 226.703 281.377 226.701C281.459 226.663 281.541 226.628 281.623 226.59C281.621 226.585 281.618 226.581 281.614 226.576C281.918 226.39 282.131 226.141 282.258 225.861C286.102 223.3 289.314 219.805 291.71 215.727C292.712 214.019 293.679 212.246 294.992 210.749C296.39 209.152 298.05 208.203 300.106 207.709C302.508 207.13 304.983 206.784 307.444 206.587C308.788 206.48 310.291 206.314 311.754 206.321C312.775 206.328 313.775 206.416 314.69 206.67C316.048 207.045 316.842 208.082 317.694 209.13C318.509 210.137 319.319 211.145 320.08 212.194C320.801 213.188 321.483 214.216 322.073 215.293C322.426 215.939 322.754 216.603 323.03 217.289C323.129 217.531 323.255 217.806 323.313 218.058C323.374 218.312 323.264 218.58 323.548 218.58C322.379 218.596 322.391 220.473 323.552 220.405C328.102 220.139 321.586 211.217 320.633 209.973C319.284 208.212 317.893 205.915 315.734 205.096C315.704 205.084 315.671 205.073 315.641 205.063C316.268 204.465 316.765 203.749 317.24 203.02C317.729 202.27 318.312 201.411 318.472 200.521C318.575 199.954 317.872 199.631 317.54 200.127C317.055 200.851 316.821 201.767 316.46 202.562C316.09 203.369 315.643 204.131 315.287 204.944C314.435 204.681 313.515 204.56 312.576 204.52C313.761 202.911 315.781 199.807 316.025 199.408C317.144 197.562 318.209 195.659 319.228 193.753C320.328 191.689 321.272 189.539 322.325 187.451C322.922 186.267 323.524 185.073 324.189 183.924C324.416 183.53 324.662 183.137 324.941 182.778C324.997 182.707 325.065 182.648 325.128 182.581C325.201 182.541 325.278 182.496 325.32 182.472C325.702 182.252 325.837 181.739 326.107 181.414C326.535 180.889 327.041 180.828 327.69 180.82C329.069 180.806 330.452 180.861 331.829 180.899C333.854 180.956 335.875 181.036 337.898 181.143C338.509 181.176 339.118 181.209 339.731 181.248C342.67 181.423 345.608 181.653 348.539 181.936C351.134 182.185 353.728 182.591 356.322 182.785C352.808 191.174 348.912 199.411 344.498 207.36C344.454 207.441 344.421 207.522 344.4 207.602ZM324.899 229.212C324.332 229.476 323.782 229.8 323.269 230.169C323.356 229.593 323.377 228.986 323.353 228.375C323.775 228.831 324.316 229.092 324.899 229.212ZM349.097 214.783C349.057 214.788 349.019 214.809 349.001 214.849C348.216 216.475 348.544 218.29 349.825 219.564C350.497 220.229 351.958 220.979 351.911 222.071C351.871 222.952 350.914 223.693 350.506 224.422C350.125 225.102 349.984 225.847 350.288 226.581C350.677 227.524 351.766 227.898 352.14 228.824C352.613 230 351.845 231.416 351.307 232.438C350.806 233.386 350.157 234.331 349.729 235.333C346.849 236.831 344.271 239.129 342.056 241.461C339.631 244.013 337.549 247.013 333.697 246.938C333.313 246.931 333.021 247.136 332.845 247.418C331.773 247.467 330.698 247.488 329.626 247.493C327.741 247.502 325.856 247.484 323.974 247.425C323.84 246.966 323.939 246.345 323.932 245.957C323.908 244.711 323.896 243.467 323.843 242.223C323.829 241.875 323.815 241.527 323.801 241.181C324.48 242.411 325.802 242.971 327.308 242.886C329.731 242.745 332.169 242.345 334.568 241.988C335.833 241.8 337.095 241.586 338.352 241.358C339.387 241.174 340.848 241.221 341.569 240.387C341.74 240.194 341.749 239.836 341.483 239.707C340.766 239.354 340.317 239.55 339.53 239.702C338.57 239.89 337.61 240.067 336.645 240.234C334.796 240.556 332.941 240.855 331.082 241.118C330.024 241.268 328.963 241.414 327.903 241.532C326.978 241.631 325.933 241.767 325.187 241.066C323.683 239.653 324.526 237.283 325.477 235.853C325.496 235.825 325.496 235.799 325.489 235.775C326.388 235.564 327.282 235.317 328.174 235.143C329.893 234.811 331.621 234.531 333.353 234.282C336.91 233.772 340.49 233.436 344.067 233.097C344.952 233.01 344.962 231.611 344.067 231.693C338.928 232.166 333.765 232.615 328.696 233.607C327.427 233.854 326.165 234.134 324.91 234.451C324.318 234.597 323.683 234.828 323.061 234.835C323.023 234.835 322.986 234.835 322.948 234.832C321.731 234.795 321.555 233.748 322.222 232.878C322.307 232.77 322.391 232.664 322.478 232.561C323.66 231.147 325.13 230.202 326.648 229.226C328.345 228.993 330.038 228.476 331.703 228.095C335.807 227.157 339.911 226.216 344.021 225.278C344.824 225.095 344.482 223.851 343.676 224.034C340.56 224.742 337.441 225.452 334.323 226.162L329.759 227.202C328.848 227.408 327.711 227.822 326.638 227.973C326.109 228.046 325.596 228.055 325.133 227.947C323.639 227.59 323.562 225.713 324.208 224.598C324.929 223.345 326.294 222.562 327.507 221.852C329.607 220.621 331.841 219.735 334.023 218.715C334.412 218.63 334.798 218.544 335.187 218.459C337.439 217.96 340.015 217.716 342.133 216.803C342.77 216.532 342.421 215.526 341.794 215.54C340.148 215.576 338.427 216.164 336.819 216.513C335.077 216.893 333.335 217.27 331.593 217.647C331.419 217.685 330.384 218.017 330.228 217.944C330.129 217.896 330.094 217.55 330.059 217.322C329.954 216.572 329.876 215.785 329.991 215.032C330.246 213.345 331.646 212.552 333.065 211.905C336.219 210.464 339.68 209.563 343.124 209.202C343.918 209.118 344.711 209.066 345.51 209.04C346.446 209.012 347.219 208.846 347.694 209.774C348.441 211.235 348.853 213.115 349.097 214.783ZM344.716 267.782C344.028 265.393 344.215 262.844 343.744 260.405C343.501 259.15 343.168 257.901 342.805 256.673C342.515 255.683 342.026 254.628 341.972 253.593C341.967 253.525 342.049 253.485 342.105 253.518C343.075 254.075 343.819 255.281 344.372 256.229C345.034 257.362 345.54 258.548 345.95 259.796C346.762 262.28 347.43 265.278 346.381 267.782C346.069 268.528 344.974 268.678 344.716 267.782ZM323.466 236.137C324.046 236.081 324.627 235.968 325.208 235.839C324.559 236.476 323.96 237.24 323.625 238.092C323.573 237.438 323.508 236.789 323.421 236.14C323.435 236.14 323.452 236.14 323.466 236.137ZM317.882 285.87C316.856 285.151 316.109 284.146 315.24 283.26C314.386 282.39 315.723 281.047 316.577 281.917C317.32 282.674 317.961 283.617 318.834 284.231C319.256 284.525 319.45 285.057 319.174 285.529C318.93 285.945 318.301 286.162 317.882 285.87ZM312.166 258.261C314.037 257.447 315.877 256.563 317.835 255.977C319.005 255.627 319.499 257.459 318.338 257.807C316.535 258.348 314.842 259.152 313.121 259.9C312.014 260.379 311.054 258.743 312.166 258.261ZM292.414 257.692C291.955 256.558 293.786 256.069 294.236 257.186C294.756 258.472 295.35 259.728 295.868 261.014C296.324 262.148 294.498 262.637 294.046 261.518C293.527 260.231 292.932 258.978 292.414 257.692ZM272.918 280.335C272.611 280.741 272.105 280.965 271.625 280.676C271.223 280.433 270.977 279.789 271.286 279.378C272.185 278.171 273.098 276.979 274.154 275.904C275.009 275.032 276.346 276.375 275.491 277.247C274.547 278.206 273.721 279.258 272.918 280.335ZM270.129 153.285C270.995 153.881 271.756 154.603 272.496 155.347C273.358 156.212 272.021 157.555 271.162 156.69C270.537 156.063 269.907 155.426 269.176 154.925C268.752 154.635 268.563 154.095 268.837 153.626C269.08 153.205 269.708 152.996 270.129 153.285ZM298.495 183.835C298.003 184.821 297.563 185.788 297.535 186.91C297.505 188.131 295.615 188.132 295.645 186.91C295.681 185.442 296.219 184.17 296.863 182.877C297.406 181.782 299.036 182.745 298.495 183.835ZM308.902 159.299C309.919 158.619 310.862 160.264 309.855 160.939C309.04 161.485 308.223 162.032 307.406 162.579C306.39 163.259 305.446 161.614 306.453 160.94C307.268 160.393 308.085 159.846 308.902 159.299ZM263.761 202.197C263.587 203.404 261.766 202.888 261.939 201.693C262.204 199.846 262.529 198.024 263.028 196.225C263.353 195.048 265.175 195.551 264.849 196.73C264.351 198.529 264.025 200.351 263.761 202.197ZM257.135 223.942C255.919 223.916 255.919 222.019 257.135 222.045C258.237 222.068 259.319 222.36 260.38 222.625C261.562 222.922 261.056 224.754 259.879 224.457C258.98 224.232 258.066 223.964 257.135 223.942ZM254.69 267.749C254.271 267.954 253.843 268.137 253.421 268.332C252.576 268.72 251.731 269.108 250.885 269.499C249.125 270.31 247.364 271.126 245.606 271.944C242.087 273.581 238.542 275.159 235.013 276.777C231.415 278.43 227.828 280.102 224.243 281.783C222.555 282.576 220.855 283.338 219.155 284.109C217.704 284.77 215.91 285.922 214.316 286.03C214.234 286.035 214.208 285.931 214.255 285.877C214.856 285.191 215.816 284.791 216.608 284.342C217.416 283.885 218.24 283.455 219.059 283.02C220.768 282.11 222.478 281.207 224.203 280.33C227.654 278.576 231.113 276.836 234.571 275.095C238.097 273.32 241.618 271.535 245.177 269.823C246.851 269.017 248.53 268.215 250.206 267.413C251.115 266.98 252.026 266.545 252.934 266.115C253.328 265.927 253.716 265.725 254.117 265.558C254.65 265.337 255.058 265.381 255.608 265.245C256.505 265.024 256.893 266.169 256.205 266.67C255.636 267.079 255.339 267.432 254.69 267.749ZM242.075 287.215C241.881 286.743 242.288 286.166 242.735 286.049C243.271 285.905 243.702 286.232 243.896 286.71C244.416 287.977 245.154 289.139 246.102 290.119C246.952 290.997 245.617 292.339 244.767 291.462C243.576 290.232 242.721 288.795 242.075 287.215ZM232.796 256.744C231.934 255.879 233.269 254.536 234.131 255.401L236.58 257.861C237.441 258.726 236.104 260.069 235.243 259.204L232.796 256.744ZM207.671 252.732C205.91 253.252 203.857 253.727 202.656 255.237C202.597 255.312 202.499 255.215 202.534 255.143C204.07 251.942 208.479 250.818 211.529 249.699C213.688 248.904 215.901 248.248 218.134 247.66C217.912 245.099 218.528 242.357 218.741 239.811C218.97 237.092 219.155 234.364 219.251 231.637C219.347 228.855 219.371 226.054 219.282 223.272C219.19 220.498 218.832 217.759 218.675 214.996C218.659 214.728 219.029 214.716 219.111 214.936C220.038 217.501 220.434 220.342 220.736 223.046C221.047 225.831 221.15 228.61 221.11 231.411C221.068 234.291 220.902 237.165 220.672 240.036C220.565 241.398 220.438 242.757 220.319 244.119C220.23 245.156 220.188 246.186 219.977 247.19C221.323 246.858 222.672 246.545 224.018 246.24C228.31 245.266 232.618 244.363 236.891 243.312C238.989 242.795 241.056 242.176 243.143 241.628C245.109 241.111 247.186 240.483 249.204 240.253C249.923 240.17 250.014 241.16 249.539 241.497C247.898 242.654 245.718 243.46 243.824 244.107C241.923 244.758 239.944 245.226 237.996 245.706C233.932 246.712 229.827 247.533 225.73 248.389C221.637 249.243 217.537 250.091 213.491 251.145C211.543 251.653 209.602 252.163 207.671 252.732ZM198.022 201.944C196.971 202.565 196.02 200.923 197.069 200.305C198.441 199.496 199.902 198.889 201.377 198.296C202.508 197.841 202.993 199.678 201.878 200.126C200.553 200.659 199.256 201.218 198.022 201.944ZM194.213 272.473C193.159 273.09 192.208 271.448 193.26 270.834C194.737 269.974 196.355 269.4 197.886 268.647C198.975 268.111 199.93 269.75 198.839 270.287C197.308 271.039 195.69 271.613 194.213 272.473ZM192.499 232.438C193.519 233.412 194.88 233.871 196.165 234.381C197.284 234.825 196.793 236.662 195.662 236.213C194.063 235.575 192.433 234.992 191.164 233.781C190.279 232.937 191.618 231.597 192.499 232.438ZM203.784 178.066C204.903 178.508 204.414 180.343 203.281 179.897C202.026 179.402 200.726 179.025 199.471 178.53C198.35 178.088 198.841 176.253 199.975 176.699C201.23 177.194 202.527 177.571 203.784 178.066ZM223.688 156.47C224.88 156.268 225.388 158.098 224.191 158.301C222.707 158.552 221.244 158.847 219.837 159.394C218.701 159.836 218.212 158 219.335 157.564C220.743 157.016 222.204 156.722 223.688 156.47ZM230.265 209.052C229.174 208.512 230.132 206.876 231.218 207.413C232.365 207.979 233.552 208.416 234.803 208.684C235.994 208.939 235.486 210.769 234.299 210.515C232.892 210.213 231.553 209.688 230.265 209.052ZM236.477 179.433C237.654 179.11 238.151 180.941 236.98 181.264C234.92 181.831 232.796 182.126 230.722 182.631C229.537 182.918 229.038 181.087 230.218 180.8C232.295 180.295 234.416 180.001 236.477 179.433ZM262.829 170.138C264.025 170.361 263.515 172.19 262.325 171.969C261.061 171.734 259.778 171.73 258.495 171.73C257.277 171.729 257.28 169.831 258.495 169.831C259.954 169.832 261.391 169.871 262.829 170.138ZM348.771 180.056C345.685 179.76 342.592 179.522 339.497 179.345C339.352 179.337 339.211 179.328 339.066 179.321C339.05 179.288 339.029 179.256 339.008 179.223C337.996 177.733 337.252 176.243 336.608 174.558C335.992 172.954 335.393 171.3 334.444 169.852C333.36 168.203 331.899 166.913 330.295 165.794C329.324 166.451 328.422 167.22 327.598 168.035C326.73 168.892 325.393 167.55 326.261 166.692C326.994 165.968 327.776 165.299 328.605 164.695C327.65 164.111 326.673 163.563 325.723 163.018C322.159 160.975 318.509 159.086 314.786 157.359C313.054 156.554 311.302 155.84 309.537 155.116C308.586 154.727 307.65 154.226 306.699 153.775C306.769 153.101 306.568 152.347 306.053 151.903C305.674 151.578 305.379 151.457 304.924 151.227C304.821 151.191 304.76 151.169 304.732 151.158C304.753 151.162 304.814 151.181 304.917 151.215C305.158 151.326 305.177 151.293 304.974 151.117C304.962 150.733 304.208 149.921 304.037 149.525C303.435 148.165 303.25 146.727 302.363 145.489C301.143 143.782 299.092 143.137 297.181 143.716C296.982 141.663 296.931 139.521 296.161 137.689C296.14 137.639 296.072 137.617 296.041 137.672C295.238 139.046 295.168 140.576 295.107 142.162C295.048 143.649 295.105 145.17 295.299 146.649C295.175 146.744 295.051 146.834 294.922 146.922C294.311 147.325 293.655 147.636 292.965 147.866C291.651 148.303 290.274 148.493 288.898 148.559C285.343 148.73 281.679 148.369 278.184 147.757C274.648 147.138 269.228 146.207 266.081 144.43C264.004 143.258 262.089 141.827 260.148 140.441C260.853 138.163 261.031 135.714 260.324 133.789C260.237 133.559 259.879 133.517 259.811 133.789C259.366 135.626 259.237 137.472 258.645 139.288C258.635 139.314 258.626 139.343 258.617 139.368C258.434 139.243 258.249 139.119 258.064 138.996C257.64 138.714 257.06 138.925 256.804 139.328C252.726 145.785 246.266 146.155 239.483 147.309C232.058 148.571 224.597 149.933 217.46 152.404C210.633 154.767 204.11 158.208 198.942 163.348C197.771 164.512 196.678 165.752 195.645 167.046C196.645 167.173 197.636 167.37 198.614 167.678C199.771 168.044 199.275 169.876 198.111 169.509C196.854 169.112 195.582 168.916 194.299 168.818C190.787 173.644 188.05 179.117 185.681 184.503C181.14 194.831 178.184 205.829 176.824 217.027C177.571 216.577 178.331 216.149 179.11 215.751C180.193 215.197 181.148 216.836 180.064 217.39C178.86 218.005 177.691 218.683 176.558 219.418C176.064 224.319 175.872 229.252 175.988 234.179C176.264 245.92 177.842 258.004 181.411 269.207C183.161 274.707 185.482 280.161 188.937 284.807C190.499 286.912 192.276 288.81 194.369 290.392C195.383 291.161 196.456 291.848 197.586 292.426C199.043 293.176 200.942 293.423 202.199 294.484C202.613 294.832 202.932 295.293 203.173 295.812C203.032 296.8 203.016 297.788 203.285 298.775C203.37 299.083 203.601 299.335 203.887 299.457C203.892 299.542 203.892 299.624 203.892 299.707C203.892 299.744 203.948 299.754 203.957 299.716C203.969 299.643 203.981 299.568 203.992 299.493C204.084 299.523 204.18 299.537 204.28 299.537C207.867 299.551 211.459 299.464 215.053 299.342C214.774 298.486 214.475 297.64 214.184 296.784C213.793 295.622 215.617 295.128 216.006 296.278C216.346 297.277 216.699 298.27 217.013 299.272C220.862 299.128 224.711 298.956 228.551 298.827C236.722 298.554 244.889 298.465 253.061 298.291C265.753 298.021 278.537 297.468 291.246 298.009C291.686 297.073 292.178 296.156 292.646 295.232C293.196 294.141 294.826 295.102 294.276 296.191C293.953 296.833 293.616 297.468 293.297 298.108C295.873 298.242 298.443 298.42 301.01 298.663C305.388 299.074 309.727 299.808 314.1 300.264C318.546 300.73 322.899 300.645 327.31 299.909C328.104 299.775 328.572 299.293 328.767 298.695C328.774 298.693 328.778 298.688 328.783 298.681C329.008 298.416 329.221 298.195 329.441 298.002C329.703 297.832 329.986 297.687 330.319 297.56C330.942 297.322 331.588 297.176 332.246 297.08C332.967 296.969 333.7 296.96 334.423 296.871C335.032 296.793 335.627 296.675 336.221 296.534C337.291 296.278 338.308 295.942 339.319 295.5C340.199 295.112 340.996 294.557 341.747 293.952C343.302 292.81 344.648 291.354 345.823 289.84C346.509 288.953 347.153 288.036 347.739 287.079C348.76 285.423 349.628 283.702 350.509 281.969C350.827 281.454 351.117 280.927 351.384 280.391C349.666 279.881 347.933 279.467 346.111 279.439C344.896 279.418 344.896 277.52 346.111 277.539C348.2 277.574 350.176 278.063 352.138 278.646C352.232 278.392 352.325 278.134 352.41 277.875C352.644 277.332 352.836 276.774 352.997 276.208C353.091 275.951 353.187 275.695 353.281 275.439C353.494 274.552 353.707 273.663 353.92 272.772C354.348 271.349 354.686 269.903 354.934 268.438C355.142 267.476 355.304 266.505 355.411 265.522C355.742 263.143 356.011 260.767 356.029 258.362C356.001 256.878 355.908 255.397 355.746 253.924C355.678 252.923 355.564 251.926 355.407 250.936C355.203 249.464 355.002 248.008 354.664 246.555C354.412 245.574 354.159 244.591 353.906 243.608C353.276 241.56 352.531 239.552 351.675 237.591C351.628 237.466 351.389 237.196 351.244 237.193C351.136 237.191 350.984 237.292 351.035 237.424C351.04 237.435 351.045 237.45 351.049 237.461C351 237.351 350.951 237.236 350.902 237.125C350.86 237.022 350.694 236.812 350.567 236.815C350.56 236.815 350.553 236.815 350.544 236.817C350.576 236.793 350.607 236.763 350.637 236.725C351.485 235.719 352.035 234.39 352.644 233.224C353.147 232.26 353.62 231.244 353.758 230.155C353.878 229.2 353.716 228.257 353.117 227.484C352.438 226.602 351.157 226.19 351.869 224.918C352.677 223.47 353.864 222.216 352.681 220.571C352.08 219.733 351.124 219.273 350.415 218.544C349.6 217.702 349.214 216.574 349.235 215.424C349.284 215.452 349.35 215.438 349.373 215.367C350.059 213.288 349.563 211.005 348.863 208.981C348.479 207.882 347.668 207.581 346.727 207.526C350.808 199.518 354.627 191.38 358.031 183.056C358.144 182.783 358.256 182.51 358.366 182.237C358.532 181.829 358.181 181.286 357.779 181.195C354.835 180.547 351.768 180.341 348.771 180.056Z" fill="black"/>
<path fill-rule="evenodd" clip-rule="evenodd" d="M314.723 80.8624C314.161 73.5667 315.029 65.9197 312.229 58.9855C307.347 47.4799 293.66 43.6436 283.046 39.2634C278.794 38.0011 264.489 37.8247 259.511 36.1544C248.244 32.3736 245.552 27.869 236.6 35.0675C235.088 36.2971 234.142 37.6338 233.454 39.4597L233.482 39.4675C233.285 40.2289 233.496 40.9885 233.941 41.5686C230.059 45.5549 228.434 51.5311 230.426 56.8374C236.926 70.6456 236.619 78.112 234.526 92.9566C231.791 106.815 238.04 111.877 248.389 119.418C247.968 120.239 247.879 121.33 248.429 122.054C260.396 138.949 282.962 147.016 302.295 138.441C310.143 134.932 313.646 126.535 315.645 118.959C317.975 110.475 318.691 101.536 316.795 92.8947C316.029 88.898 315.034 84.9303 314.723 80.8624Z" fill="white"/>
<path fill-rule="evenodd" clip-rule="evenodd" d="M245.693 0.03276C247.144 -0.18638 248.24 0.719081 248.762 1.99533L248.79 2.06407C248.959 2.49833 249.144 2.92071 249.345 3.33599C252.981 1.54438 258.168 2.00474 260.469 5.63307C262.11 8.22442 261.108 11.2998 260.49 14.0478L260.083 15.8583C260.869 16.3606 261.459 17.2596 261.434 18.1906L261.429 18.2623L261.265 20.7871C261.79 20.2533 262.267 19.6718 262.696 19.0524C262.991 18.509 263.309 17.9752 263.651 17.4578C265.667 14.4133 270.19 17.0592 268.528 20.3196C268.207 20.9484 267.849 21.5441 267.465 22.1183C267.03 22.9656 266.674 23.8364 266.4 24.7311C267.186 25.0752 267.791 25.8394 267.854 26.9926C268.004 29.6861 266.594 31.9332 264.356 33.3451C263.698 33.7603 263.016 33.8412 262.401 33.687C262.291 33.8339 262.183 33.9811 262.08 34.1307C262.972 34.8592 263.777 35.6898 264.468 36.6104C266.552 36.2972 268.647 36.15 270.743 36.1453C273.302 34.8853 276.369 34.9114 279.12 35.3836C280.893 35.6874 282.593 36.2781 284.337 36.7031C286.173 37.1491 288.039 37.1656 289.898 37.4694C292.241 37.8515 294.297 38.9384 295.587 40.6729C297.009 40.7157 298.5 41.2996 299.739 42.0921C302.621 43.9383 305.484 45.8106 308.36 47.6688C309.462 48.382 309.874 49.5208 309.673 50.7909L309.659 50.8723L309.563 51.399L309.79 51.7233C310.668 52.9715 311.626 54.2787 312.195 55.6562C313.248 57.1822 314.201 58.7814 315.044 60.4308C316.18 62.6471 317.119 64.9966 317.753 67.4073C317.912 68.0173 318.069 68.6318 318.175 69.2535C318.322 70.1316 318.093 70.8126 317.969 71.6552C317.812 72.723 317.755 73.8052 317.589 74.8754C317.479 75.5848 316.88 75.9336 316.25 75.9526C316.486 77.7586 316.657 79.5763 316.821 81.3797C317.048 83.9568 317.205 86.5411 317.341 89.1252C318.034 90.1385 319.453 90.9406 320.478 91.2183C321.9 91.6002 323.386 91.1849 324.728 90.6986C325.571 90.3925 326.264 91.458 325.852 92.1698C324.559 94.4051 321.797 94.3957 319.703 93.4062C318.818 92.9886 318.041 92.3835 317.465 91.5955C317.5 92.3454 317.538 93.0953 317.575 93.8476L317.61 94.5288C318.036 102.486 318.957 110.717 317.467 118.596C314.89 132.243 303.649 142.634 289.917 143.441C282.712 143.865 276.711 141.726 273.726 140.533C270.743 139.341 271.902 136.909 273.974 137.604C277.542 138.802 284.098 140.586 289.966 139.815C303.792 137.999 315.517 131.056 314.311 101.152C314.14 96.9109 313.616 92.6681 313.501 88.4275C313.393 84.282 313.433 80.1339 313.251 75.9907L313.19 74.577C313.12 72.9252 313.045 71.2658 312.92 69.6119C312.773 68.9711 312.649 68.3209 312.466 67.6921C311.975 65.9811 311.328 64.3177 310.528 62.7301C310.35 62.8656 310.153 62.9627 309.938 63.0008C308.306 63.295 306.774 63.212 305.245 62.5286C304.534 62.2128 303.904 61.7928 303.319 61.2731C303.04 61.0288 302.855 60.7915 302.707 60.5446C301.968 60.5566 301.228 60.3334 300.766 59.7996C300.237 59.1911 300.151 58.5625 300.357 57.9805L300.378 57.9224L300.326 57.9036C299.703 59.5243 298.46 60.9505 297.098 61.9139C294.943 63.4422 292.249 63.8836 289.664 63.9238C286.812 63.9666 283.803 63.5252 280.987 63.0744C280.242 62.9557 279.504 62.8204 278.779 62.6377C278.751 62.6662 278.722 62.6993 278.69 62.7278C276.273 65.0511 272.876 65.6491 269.809 64.3226C268.039 63.556 266.552 62.3221 265.238 60.9077C265.22 61.6482 265.182 62.3885 265.119 63.1217L265.093 63.413C264.962 64.7786 264.709 66.2273 263.684 67.2129C262.021 68.8098 259.612 68.1693 257.697 67.1299C257.699 67.1797 257.699 67.2319 257.699 67.2841C258.217 69.0494 258.736 70.8176 259.256 72.5854L259.369 72.9619C259.746 74.2172 260.16 75.4741 260.275 76.7879C260.492 79.2986 258.828 81.7783 256.051 80.936C254.595 80.4958 253.426 79.265 252.307 78.279L251.602 77.6659C253.426 83.6626 254.693 89.8728 254.81 96.1305C254.819 96.4698 254.527 96.7261 254.206 96.7379C253.454 96.7687 252.647 96.6194 251.893 96.3179C251.848 96.3155 251.806 96.3132 251.761 96.3059C250.471 96.1185 249.275 95.651 248.219 94.9606C248.463 95.7366 248.57 96.5695 248.507 97.4403C248.491 97.6514 248.163 97.725 248.116 97.4925C247.505 94.4811 243.998 92.2055 240.975 92.7821C237.73 93.4015 235.339 96.2064 234.754 99.3979C234.124 102.827 235.327 106.792 237.554 109.438C238.58 110.658 239.928 111.676 241.53 111.932C242.263 112.049 243.023 112.008 243.733 111.799C244.035 111.709 244.318 111.583 244.606 111.465C245.028 111.294 245.519 111.268 245.915 111.087C246.817 110.682 247.72 111.515 247.264 112.442C246.868 113.252 246.512 113.798 245.852 114.215C246.386 114.87 246.87 115.781 247.051 116.026C247.966 117.269 248.896 118.444 249.94 119.58C251.003 120.734 252.164 121.787 253.389 122.763L253.904 123.172C255.086 124.113 256.114 124.985 256.945 126.334C257.603 127.4 256.753 128.845 255.522 128.828C251.673 128.774 248.872 125.375 246.88 122.407C246.596 121.982 246.33 121.533 246.081 121.073C245.992 121.218 245.892 121.353 245.782 121.477L246.002 122.07C246.653 123.816 243.845 124.958 243.031 123.327C242.436 122.146 241.75 121.021 240.984 119.958C240.532 119.894 240.092 119.619 239.846 119.263C239.223 118.358 238.528 117.445 237.94 116.481C237.613 116.171 237.278 115.871 236.936 115.58C236.838 115.668 236.735 115.755 236.639 115.848C236.208 116.832 235.676 117.732 235.018 118.579L234.876 118.76C233.614 120.358 231.97 121.994 229.935 122.385C229.312 122.504 228.715 121.728 229.266 121.232C230.691 119.946 232.375 119.07 233.688 117.635C234.335 116.927 234.929 116.148 235.44 115.332L235.557 115.143C235.641 115.003 235.728 114.863 235.819 114.721C235.227 114.315 234.632 113.907 234.04 113.498C232.408 114.899 230.282 115.54 228.477 116.701L228.299 116.818C226.667 117.915 224.946 115.49 226.255 114.158C227.697 112.696 228.9 110.953 230.179 109.328C229.579 108.216 229.294 106.901 229.188 105.572C229.146 105.196 229.113 104.819 229.081 104.443C228.163 104.457 227.243 104.142 226.463 103.598L226.168 103.387C225.22 103.691 224.227 103.838 223.274 103.812C221.036 103.745 220.118 101.175 221.518 99.5498C222.949 97.8887 225.449 97.5256 227.43 98.3325C227.495 98.2993 227.561 98.2638 227.624 98.228C227.531 97.7916 227.552 97.3954 227.659 97.0476L227.627 96.8355C227.191 96.1636 226.905 95.3966 226.795 94.5862C226.711 93.9445 226.728 93.3082 226.875 92.6744C226.924 92.4635 227.027 92.2448 227.105 92.0249C226.945 91.6162 226.849 91.1939 226.821 90.769C226.774 90.7151 226.73 90.6598 226.688 90.6001C225.704 89.2129 225.903 87.5417 226.84 86.4193C226.842 86.3478 226.849 86.2763 226.859 86.2056C226.805 86.0816 226.756 85.9565 226.709 85.83C225.793 84.9035 225.124 83.7884 225.248 82.4066C225.323 81.5935 225.655 80.8617 226.159 80.3147C226.067 80.0495 226.06 79.7421 226.168 79.4856C225.365 77.3391 225.466 74.7536 226.044 72.3529C225.917 71.9874 225.852 71.591 225.866 71.171C225.931 69.389 227.467 67.7516 229.284 67.7728C229.504 67.7747 229.708 67.8036 229.907 67.8454L229.909 67.8031C229.977 67.2681 230.125 66.7738 230.338 66.3303C230.233 66.292 230.137 66.2372 230.05 66.1643C228.886 66.7891 227.652 67.2665 226.36 67.5917C225.409 67.8311 224.435 66.7454 225.025 65.8488C225.299 65.4328 225.604 65.0593 225.929 64.7181C225.466 64.7207 224.995 64.7522 224.52 64.8136C223.663 64.9253 222.71 64.3391 222.155 63.5466C221.464 64.2205 220.773 64.8919 220.08 65.5635C218.329 67.2698 215.681 66.0145 215.405 63.7648C214.883 63.6249 214.396 63.3876 213.967 63.0483C211.204 64.2537 208.231 64.9157 205.192 65.0415C203.007 65.1318 201.733 62.5782 202.752 60.7748C203.438 59.5645 204.288 58.4778 205.269 57.5332C203.747 58.0007 202.176 58.3377 200.572 58.5538C199.706 58.67 198.481 57.9485 198.132 57.149C196.805 54.0734 196.92 50.8676 198.446 47.8752C198.507 47.7565 198.573 47.6427 198.636 47.5286C198.795 47.1324 198.966 46.7408 199.153 46.3564C197.273 44.3867 197.109 41.4586 198.123 39.0071C197.718 38.3451 197.561 37.5477 197.837 36.8263C198.624 34.7499 199.757 32.8327 201.19 31.1856C201.052 30.9199 200.933 30.6375 200.83 30.3339C200.024 27.8777 200.958 24.9138 202.841 23.2029C204.023 22.1256 205.384 21.4801 206.838 21.0672C207.449 19.9803 208.235 19.0002 209.151 18.1746C209.186 18.0963 209.223 18.018 209.263 17.9396C210.689 15.2391 213.288 13.7915 216.072 13.4569C216.182 12.4008 216.889 11.3925 217.919 11.0649C218.203 10.1513 218.626 9.27803 219.207 8.48544C220.12 7.23724 221.64 6.64872 223.07 7.46741C223.855 7.91592 224.606 8.43086 225.311 9.00038C225.627 8.85144 225.985 8.75505 226.388 8.72431L226.491 8.71801L228.821 8.59935C229.795 8.16509 230.769 7.70946 231.745 7.26572C232.33 6.77923 232.984 6.37345 233.698 6.07208C234.506 5.73275 235.332 5.54054 236.161 5.47646C236.835 5.25577 237.512 5.06118 238.203 4.90931C239.823 4.55336 241.518 4.35402 243.199 4.37062C243.234 3.93333 243.251 3.49077 243.248 3.04301L243.244 2.81868C243.206 1.38301 244.349 0.23685 245.693 0.03276ZM244.058 114.899C243.829 114.948 243.595 114.989 243.361 115.017C243.431 115.193 243.501 115.368 243.571 115.544C243.759 115.651 243.951 115.753 244.143 115.848C244.086 115.525 244.051 115.2 244.058 114.899ZM231.925 111.276L231.766 111.566C231.743 111.614 231.717 111.661 231.691 111.707C232.026 111.681 232.361 111.688 232.691 111.726V111.691C232.649 111.676 232.604 111.663 232.565 111.643C232.337 111.533 232.124 111.409 231.925 111.276ZM238.484 98.0218C240.572 98.1441 242.342 98.4658 244.243 99.3843L244.407 99.4645C246.086 100.302 248.863 101.849 248.629 104.068C248.563 104.699 248.109 105.364 247.39 105.314C245.423 105.179 244.297 103.185 242.965 101.942C241.621 100.689 239.97 99.4005 238.343 98.5389C238.114 98.4178 238.205 98.0338 238.453 98.0216L238.484 98.0218ZM229.006 68.7884C228.505 68.8051 228.673 69.294 228.931 68.8858C228.952 68.8526 228.978 68.8195 229.006 68.7884ZM256.037 36.1544C251.293 36.2795 246.522 39.0929 242.967 41.9364C239.877 44.4102 237.21 47.3529 234.845 50.5245C234.239 52.1038 233.717 53.7162 233.274 55.3407C232.984 56.4132 232.801 57.4977 232.56 58.5799L232.483 58.9115C232.293 59.2703 232.15 59.6564 232.047 60.0553C232.478 60.4891 233.035 60.7998 233.651 60.9472C233.85 60.9945 234.014 61.0972 234.145 61.2336C234.639 60.4035 235.072 59.5273 235.323 58.5985L235.332 58.5557C236.285 56.9896 237.318 55.4723 238.425 54.0071C241.483 49.961 244.847 46.2734 248.893 43.2051C251.963 40.8794 255.393 39.0569 259.038 37.8729C258.146 37.1494 257.133 36.577 256.037 36.1544Z" fill="black"/>
<path fill-rule="evenodd" clip-rule="evenodd" d="M298.788 124.147C297.048 124.653 295.18 124.698 293.407 124.175C291.799 123.701 290.146 122.657 288.964 121.276C287.91 120.049 287.229 118.558 287.257 116.966C287.259 116.784 287.325 116.633 287.423 116.515C287.531 116.388 287.68 116.301 287.84 116.263C288.006 116.225 288.179 116.238 288.329 116.306C288.462 116.367 288.577 116.471 288.65 116.624C288.832 116.864 289.013 117.1 289.195 117.33C290.659 119.145 292.075 120.502 294.274 120.988C295.468 121.252 296.66 121.135 297.753 120.732C298.926 120.301 299.984 119.543 300.813 118.573C301.188 118.134 301.63 117.956 302.064 117.952C302.553 117.949 303.038 118.178 303.403 118.544C303.761 118.904 304.002 119.392 304.023 119.904C304.044 120.352 303.897 120.821 303.51 121.239C302.232 122.616 300.579 123.626 298.788 124.147ZM298.734 101.415C300.518 102.504 303.237 105.044 301.317 107.744C299.06 110.125 295.807 107.395 294.204 106.161C292.719 105.204 291.05 107.665 292.426 108.782C304.007 117.395 308.706 101.7 299.638 100.134C298.638 99.9618 298.268 101.078 298.734 101.415ZM282.049 96.6223C281.476 96.2538 280.801 96.1276 280.055 96.469C279.472 96.7359 278.446 97.6255 277.734 98.7947C277.245 99.5947 276.901 100.533 276.971 101.511C276.99 101.738 276.905 101.905 276.774 102.029C276.669 102.127 276.519 102.199 276.344 102.221C276.194 102.24 276.025 102.223 275.889 102.18C275.629 102.099 275.491 101.93 275.44 101.792C274.941 100.46 275.156 98.9739 275.716 97.633C276.47 95.8235 277.842 94.3079 278.739 93.8193C280.277 92.9829 282.089 92.9443 283.63 93.7965C284.941 94.5217 285.758 95.6928 286.573 96.8864C286.746 97.1401 286.92 97.392 287.097 97.6394C287.453 98.1353 287.488 98.627 287.35 99.0487C287.198 99.5159 286.807 99.91 286.32 100.116C285.871 100.307 285.348 100.334 284.885 100.138C284.496 99.9726 284.138 99.6499 283.911 99.1025C283.529 98.1805 282.892 97.1632 282.049 96.6223ZM311.164 98.6736C310.773 98.8791 310.464 98.941 310.029 98.81C309.788 98.7373 309.551 98.5979 309.364 98.4107C309.179 98.2251 309.046 97.9945 308.994 97.7384C308.868 97.1068 308.523 96.5153 308.034 96.1297C307.615 95.8002 307.086 95.6255 306.498 95.724C305.866 95.8303 305.262 96.2383 304.847 96.7192C304.707 96.8801 304.599 97.063 304.489 97.2446C304.285 97.5839 304.086 97.8995 303.803 98.149C303.695 98.2437 303.534 98.3093 303.379 98.3093C303.316 98.3093 303.251 98.299 303.19 98.2799C302.56 97.6443 302.438 97.1625 302.459 96.6842C302.48 96.1828 302.677 95.6751 302.995 95.2015C303.74 94.0907 305.156 93.1797 306.112 92.9732C307.421 92.6908 308.72 93.0299 309.762 93.7643C310.834 94.5198 311.628 95.693 311.876 97.015C311.937 97.3334 311.911 97.677 311.79 97.9749C311.673 98.2663 311.466 98.5156 311.164 98.6736ZM284.936 84.7767C284.15 85.5454 283.22 85.6646 282.281 85.7704C281.759 85.8299 281.34 85.8777 280.93 85.9708C279.802 86.2266 278.687 86.6121 277.669 87.167C276.606 87.7471 275.447 88.4467 274.613 89.3431C274.414 89.5564 274.229 89.7801 274.042 90.0044C273.871 90.209 273.707 90.4058 273.534 90.5958C273.335 90.8138 273.145 91.0424 272.958 91.2702C272.841 91.4626 272.817 91.5098 272.794 91.5592C272.759 91.6333 272.719 91.7161 272.672 91.805C272.607 91.9265 272.532 92.0596 272.455 92.1805C272.323 92.4013 272.253 92.462 272.192 92.4893C272.092 92.5342 271.996 92.5565 271.904 92.5445C271.818 92.5332 271.736 92.4911 271.654 92.4227C271.251 92.0803 271.132 91.5188 271.143 90.9224C271.162 90.0178 271.495 89.016 271.801 88.4002C272.513 86.9693 273.501 85.4819 274.688 84.4138C276.042 83.195 277.526 82.2721 279.228 81.6362C280.286 81.2409 281.511 80.8781 282.663 80.9239C283.492 80.9568 284.285 81.2047 284.939 81.8234C285.341 82.2032 285.533 82.7435 285.533 83.2835C285.533 83.8342 285.332 84.388 284.936 84.7767ZM312.761 91.8163C312.712 91.8986 312.644 91.9552 312.567 91.9893C312.485 92.0248 312.396 92.0352 312.309 92.0206C312.223 92.006 312.141 91.9668 312.078 91.907C312.014 91.8496 311.968 91.7735 311.946 91.6803C311.424 89.3796 310.413 87.6677 308.252 86.5639C307.189 86.0209 305.967 85.6759 304.808 85.4008C304.473 85.3208 304.117 85.2689 303.759 85.2164C302.637 85.0521 301.509 84.8637 300.778 83.9529C300.336 83.4043 300.151 82.7026 300.256 82.0611C300.354 81.457 300.706 80.903 301.345 80.5712C302.935 79.7451 304.911 80.5557 306.517 81.2461C306.636 81.2973 306.753 81.3477 306.868 81.3961C308.437 82.0621 309.87 82.9411 311.047 84.1982C311.982 85.1957 312.848 86.6701 313.197 88.1869C313.485 89.4487 313.417 90.7369 312.761 91.8163Z" fill="black"/>
</svg>
